<svg width="591" height="583" viewBox="0 0 591 583" fill="none" xmlns="http://www.w3.org/2000/svg">
<g filter="url(#filter0_d_1_1089)">
<rect x="31" y="17" width="536" height="536" fill="white"/>
<path d="M32.2902 3.39062C32.2902 63.1175 32.9266 87.1203 32.9266 150.639M32.9266 150.639C32.9266 214.158 32.8282 329.929 32.2902 407.738C31.7522 485.547 31.3347 561.284 31.3347 561.284C31.3347 572.274 30.1579 559.305 30.2437 553.457C30.351 546.147 31.3806 338.177 31.3806 320.022C31.3806 301.866 32.2902 209.446 32.9266 150.639Z" stroke="black" stroke-width="6.28125" stroke-miterlimit="10" stroke-linecap="round" stroke-linejoin="round"/>
<path d="M477.799 552.718C565.155 552.718 552.955 552.718 581.656 552.718C581.163 553.004 576.712 554.098 574.876 554.319C572.58 554.596 512.354 554.445 499.501 554.445C455.501 554.445 256.735 553.412 243.726 553.412M477.799 552.718C477.799 552.718 267.105 554.445 233.502 554.445C199.898 554.445 207.846 554.492 136.905 554.445C83.8679 554.41 20.4478 554.445 16.1801 554.445C11.9123 554.445 13.4871 552.373 13.4871 552.373C43.3184 553.412 95.2359 553.412 163.422 553.412C186.918 553.412 214.401 553.412 243.726 553.412M477.799 552.718C413.938 552.718 323.43 553.412 243.726 553.412" stroke="black" stroke-width="6.28125" stroke-miterlimit="10" stroke-linecap="round" stroke-linejoin="round"/>
<path d="M566.421 286.75C566.422 356.257 567.838 399.989 567.838 445.435C567.838 490.882 567.115 567.873 567.115 567.873C567.115 567.873 565.448 571.117 565.448 564.777C565.448 558.437 566.538 513.366 566.421 448.591C566.304 383.817 566.31 315.942 566.421 286.75ZM566.421 286.75C566.421 253.985 565.664 187.055 565.709 149.811C565.759 108.047 565.709 47.9049 565.709 7.57812" stroke="black" stroke-width="6.28125" stroke-miterlimit="10" stroke-linecap="round" stroke-linejoin="round"/>
<path d="M24.7188 17.9026C55.308 17.9026 81.9965 17.9026 97.7323 17.9026M97.7323 17.9026C113.468 17.9026 183.335 18.2077 212.918 18.2078M97.7323 17.9026C97.7323 17.9026 131.856 16.9525 151.863 16.9525C171.87 16.9525 212.918 18.2078 212.918 18.2078M586.891 18.2078C555.582 18.2078 570.058 17.9026 538.961 17.9026C521.236 17.9026 499.551 18.4112 468.465 18.2078M296.188 16.9525C317.702 16.9819 430.148 17.957 468.465 18.2078M296.188 16.9525C273.939 16.9221 242.501 18.2078 212.918 18.2078M296.188 16.9525C296.188 16.9525 350.133 16.9525 380.346 16.9525M468.465 18.2078C468.465 18.2078 410.558 16.9525 380.346 16.9525M212.918 18.2078C231.05 18.2078 273.09 18.2078 296.188 18.2078C319.287 18.2078 361.918 17.3709 380.346 16.9525" stroke="black" stroke-width="6.28125" stroke-miterlimit="10" stroke-linecap="round" stroke-linejoin="round"/>
</g>
<defs>
<filter id="filter0_d_1_1089" x="0.640137" y="0.25" width="589.391" height="582.063" filterUnits="userSpaceOnUse" color-interpolation-filters="sRGB">
<feFlood flood-opacity="0" result="BackgroundImageFix"/>
<feColorMatrix in="SourceAlpha" type="matrix" values="0 0 0 0 0 0 0 0 0 0 0 0 0 0 0 0 0 0 127 0" result="hardAlpha"/>
<feOffset dx="-9.42188" dy="10.4688"/>
<feComposite in2="hardAlpha" operator="out"/>
<feColorMatrix type="matrix" values="0 0 0 0 0 0 0 0 0 0 0 0 0 0 0 0 0 0 0.44 0"/>
<feBlend mode="normal" in2="BackgroundImageFix" result="effect1_dropShadow_1_1089"/>
<feBlend mode="normal" in="SourceGraphic" in2="effect1_dropShadow_1_1089" result="shape"/>
</filter>
</defs>
</svg>
